<?xml version="1.0" standalone="no"?>
<!DOCTYPE svg PUBLIC "-//W3C//DTD SVG 20010904//EN" "http://www.w3.org/TR/2001/REC-SVG-20010904/DTD/svg10.dtd">
<svg version="1.0" xmlns="http://www.w3.org/2000/svg" width="480.000000pt" height="480.000000pt"
  viewBox="0 0 480.000000 480.000000" preserveAspectRatio="xMidYMid meet">
  <metadata>
    Created by potrace 1.14, written by Peter Selinger 2001-2017
  </metadata>
  <g transform="translate(0.000000,480.000000) scale(0.100000,-0.100000)" fill="#000000" stroke="none">
    <path d="M2095 4181 c-736 -132 -1307 -685 -1467 -1421 -20 -94 -23 -132 -23
-360 0 -228 3 -266 23 -360 161 -739 738 -1296 1472 -1420 146 -25 433 -27
578 -5 740 116 1331 679 1493 1421 27 126 38 469 19 608 -92 678 -573 1254
-1225 1470 -202 67 -273 78 -535 82 -193 2 -253 0 -335 -15z m177 -951 l-2
-700 -351 0 -351 0 7 78 c50 566 252 1037 531 1238 58 41 137 83 159 84 7 0 9
-238 7 -700z m317 680 c252 -115 476 -470 576 -917 25 -111 64 -375 65 -435
l0 -28 -350 0 -350 0 -2 700 c-2 462 0 700 7 700 6 0 30 -9 54 -20z m-925
-177 c-185 -314 -284 -598 -328 -938 -9 -65 -16 -152 -16 -192 l0 -73 -235 0
-234 0 4 28 c3 15 12 69 21 121 48 290 203 590 418 806 56 56 126 120 156 143
55 40 229 152 237 152 3 0 -8 -21 -23 -47z m1591 -38 c154 -98 316 -259 426
-424 135 -200 215 -401 248 -621 7 -41 14 -85 17 -97 l4 -23 -235 0 -235 0 0
73 c0 40 -7 127 -16 192 -44 341 -143 624 -329 940 l-30 50 50 -29 c28 -16 73
-43 100 -61z m-1935 -1498 c0 -40 7 -127 16 -192 44 -341 143 -624 329 -940
l30 -50 -50 29 c-221 127 -393 286 -526 485 -135 200 -215 401 -248 621 -7 41
-14 85 -17 98 l-4 22 235 0 235 0 0 -73z m952 -627 c2 -462 0 -700 -7 -700
-22 1 -101 43 -160 85 -205 146 -385 472 -470 852 -25 111 -64 375 -65 436 l0
27 350 0 350 0 2 -700z m958 673 c-1 -61 -40 -325 -65 -436 -85 -380 -265
-706 -470 -852 -59 -42 -138 -84 -160 -85 -7 0 -9 238 -7 700 l2 700 350 0
350 0 0 -27z m716 5 c-3 -13 -10 -57 -17 -98 -33 -220 -113 -421 -248 -621
-134 -202 -296 -350 -526 -484 l-50 -30 30 50 c186 316 285 599 329 940 9 65
16 152 16 192 l0 73 235 0 235 0 -4 -22z" />
  </g>
</svg>
